<svg width="1062" height="1012" viewBox="0 0 1062 1012" fill="none" xmlns="http://www.w3.org/2000/svg">
<path d="M570.821 39.2869L516.28 324.964L231.908 270.672L189.57 492.43L473.943 546.722L419.9 829.79L641.658 872.128L695.701 589.06L980.073 643.352L1022.41 421.593L738.039 367.301L792.579 81.6245L570.821 39.2869ZM831.417 55.2392L776.876 340.916L1061.25 395.208L1006.46 682.189L847.942 783.07L697.929 754.43L668.044 910.965L509.527 1011.85L230.372 958.551L284.415 675.483L0.0426955 621.191L53.3384 342.036L205.523 231.834L363.362 261.969L392.251 110.651L544.436 0.449243L831.417 55.2392Z" fill="white"/>
</svg>
