<svg width="2179" height="366" viewBox="0 0 2179 366" fill="none" xmlns="http://www.w3.org/2000/svg">
<path d="M1647.33 293.809C1629.91 293.809 1614.7 290.806 1601.69 284.801C1588.88 278.596 1578.87 269.988 1571.66 258.978C1564.45 247.768 1560.85 234.657 1560.85 219.643C1560.85 201.627 1564.96 185.613 1573.16 171.601C1581.37 157.388 1592.88 146.178 1607.69 137.971C1622.51 129.763 1639.72 125.66 1659.34 125.66C1675.95 125.66 1690.17 128.663 1701.98 134.668C1713.99 140.673 1723.2 149.081 1729.6 159.89C1736.21 170.5 1739.51 182.911 1739.51 197.123C1739.51 201.928 1739.21 206.532 1738.61 210.936C1738.01 215.339 1737.21 219.643 1736.21 223.847H1605.59L1611 193.82H1709.78L1686.06 202.528C1687.66 194.721 1687.36 188.215 1685.16 183.011C1683.16 177.606 1679.66 173.502 1674.65 170.7C1669.85 167.697 1663.84 166.196 1656.64 166.196C1647.43 166.196 1639.82 168.498 1633.82 173.102C1628.01 177.706 1623.61 184.012 1620.6 192.019C1617.8 199.826 1616.4 208.333 1616.4 217.541C1616.4 228.751 1619.5 237.059 1625.71 242.464C1631.91 247.668 1641.22 250.271 1653.63 250.271C1660.84 250.271 1667.85 249.17 1674.65 246.968C1681.66 244.565 1687.76 241.263 1692.97 237.059L1716.69 272.791C1706.48 280.397 1695.37 285.802 1683.36 289.005C1671.55 292.208 1659.54 293.809 1647.33 293.809Z" fill="white"/>
<path d="M1481.03 125.66C1494.04 125.66 1505.25 128.562 1514.66 134.368C1524.07 139.973 1530.78 148.38 1534.78 159.59C1538.98 170.6 1539.38 184.412 1535.98 201.027L1518.27 291.107H1461.21L1478.03 207.032C1480.23 196.022 1479.53 187.815 1475.93 182.41C1472.52 176.805 1466.82 174.003 1458.81 174.003C1450.21 174.003 1442.9 176.805 1436.89 182.41C1431.09 187.815 1426.88 196.723 1424.28 209.134L1407.77 291.107H1350.72L1367.83 207.032C1370.03 196.022 1369.33 187.815 1365.73 182.41C1362.33 176.805 1356.62 174.003 1348.61 174.003C1340.01 174.003 1332.7 176.805 1326.7 182.41C1320.69 188.015 1316.39 197.123 1313.78 209.734L1297.57 291.107H1240.52L1272.95 128.362H1327L1319.19 166.196L1310.78 160.791C1318.19 148.78 1327.3 139.973 1338.11 134.368C1349.12 128.562 1360.53 125.66 1372.34 125.66C1381.94 125.66 1390.65 127.461 1398.46 131.065C1406.47 134.468 1413.07 139.772 1418.28 146.979C1423.48 153.985 1426.58 162.893 1427.58 173.702L1409.87 168.598C1417.28 154.786 1427.08 144.176 1439.3 136.77C1451.51 129.363 1465.42 125.66 1481.03 125.66Z" fill="white"/>
<path d="M1108.91 293.809C1097.3 293.809 1086.19 290.907 1075.58 285.101C1064.97 279.296 1056.36 270.889 1049.76 259.879C1043.35 248.869 1040.15 235.457 1040.15 219.643C1040.15 206.031 1042.45 193.52 1047.05 182.11C1051.66 170.7 1057.96 160.791 1065.97 152.384C1074.18 143.976 1083.59 137.47 1094.2 132.866C1105 128.062 1116.41 125.66 1128.43 125.66C1141.64 125.66 1152.95 128.262 1162.36 133.467C1171.96 138.471 1178.97 146.679 1183.37 158.089C1187.78 169.299 1188.78 184.512 1186.38 203.729C1184.58 221.945 1180.27 237.859 1173.47 251.472C1166.66 265.084 1157.85 275.593 1147.04 283C1136.23 290.206 1123.52 293.809 1108.91 293.809ZM1128.73 247.868C1136.33 247.868 1143.04 245.967 1148.84 242.163C1154.65 238.36 1159.15 233.055 1162.36 226.249C1165.76 219.443 1167.46 211.536 1167.46 202.528C1167.46 193.12 1164.76 185.613 1159.35 180.008C1153.95 174.203 1146.34 171.3 1136.53 171.3C1129.13 171.3 1122.42 173.302 1116.41 177.306C1110.61 181.109 1106.01 186.414 1102.6 193.22C1099.4 200.026 1097.8 207.933 1097.8 216.941C1097.8 226.349 1100.5 233.856 1105.91 239.461C1111.31 245.066 1118.92 247.868 1128.73 247.868ZM1152.75 291.107L1158.45 263.783L1169.26 210.035L1176.47 156.287L1182.17 128.362H1239.22L1206.79 291.107H1152.75Z" fill="white"/>
<path d="M921.082 295.31C899.863 295.31 881.247 291.407 865.233 283.6C849.419 275.793 837.108 264.983 828.3 251.171C819.692 237.159 815.388 221.044 815.388 202.828C815.388 184.612 818.591 167.797 824.997 152.383C831.403 136.97 840.511 123.658 852.321 112.448C864.132 101.038 878.144 92.2301 894.359 86.0245C910.773 79.819 928.989 76.7163 949.007 76.7163C970.026 76.7163 988.142 80.0192 1003.36 86.6251C1018.77 93.2309 1031.18 102.839 1040.59 115.451L997.951 149.081C990.944 140.473 983.338 134.468 975.13 131.065C966.923 127.662 957.314 125.96 946.305 125.96C935.495 125.96 925.686 127.762 916.879 131.365C908.271 134.968 900.864 140.073 894.659 146.678C888.453 153.284 883.649 161.091 880.246 170.099C877.043 178.907 875.442 188.516 875.442 198.925C875.442 208.333 877.544 216.641 881.747 223.847C885.951 230.853 892.057 236.358 900.064 240.362C908.071 244.165 917.779 246.067 929.19 246.067C938.398 246.067 947.206 244.565 955.613 241.563C964.221 238.56 972.828 233.556 981.436 226.549L1003.96 270.088C993.146 278.095 980.635 284.301 966.423 288.705C952.21 293.108 937.097 295.31 921.082 295.31ZM953.211 260.78L969.125 181.509H1021.67L1003.96 270.088L953.211 260.78Z" fill="white"/>
<path d="M467.994 291.107L440.369 128.362H492.616L513.034 264.383H486.31L561.076 128.362H610.02L631.038 264.383H604.315L678.781 128.362H732.228L643.349 291.107H586.899L567.382 178.507H584.497L523.843 291.107H467.994Z" fill="white"/>
<path d="M331.093 293.809C313.678 293.809 298.464 290.806 285.453 284.801C272.641 278.596 262.632 269.988 255.426 258.978C248.22 247.768 244.616 234.657 244.616 219.643C244.616 201.627 248.72 185.613 256.927 171.601C265.135 157.388 276.645 146.178 291.458 137.971C306.271 129.763 323.486 125.66 343.104 125.66C359.719 125.66 373.931 128.663 385.742 134.668C397.752 140.673 406.96 149.081 413.366 159.89C419.972 170.5 423.275 182.911 423.275 197.123C423.275 201.928 422.975 206.532 422.374 210.936C421.774 215.339 420.973 219.643 419.972 223.847H289.356L294.761 193.82H393.549L369.828 202.528C371.429 194.721 371.129 188.215 368.927 183.011C366.925 177.606 363.422 173.502 358.417 170.7C353.613 167.697 347.608 166.196 340.401 166.196C331.193 166.196 323.586 168.498 317.581 173.102C311.776 177.706 307.372 184.012 304.369 192.019C301.567 199.826 300.166 208.333 300.166 217.541C300.166 228.751 303.268 237.059 309.474 242.464C315.679 247.668 324.988 250.271 337.399 250.271C344.605 250.271 351.611 249.17 358.417 246.968C365.424 244.565 371.529 241.263 376.734 237.059L400.455 272.791C390.246 280.397 379.136 285.802 367.125 289.005C355.315 292.208 343.304 293.809 331.093 293.809Z" fill="white"/>
<path d="M0 291.107L42.0373 80.92H90.9808L175.956 221.445L155.538 220.844L183.463 80.92H241.715L199.677 291.107H150.734L66.0587 150.582L86.1765 151.182L58.2517 291.107H0Z" fill="white"/>
<path d="M2001.2 31.0696L1988.04 124.256L1895.28 111.156L1885.07 183.493L1977.83 196.593L1964.79 288.929L2037.12 299.145L2050.16 206.809L2142.92 219.909L2153.14 147.573L2060.38 134.472L2073.54 41.2856L2001.2 31.0696ZM2085.68 32.1502L2072.52 125.337L2165.28 138.437L2152.06 232.05L2102.4 267.134L2053.47 260.224L2046.26 311.285L1996.6 346.37L1905.54 333.509L1918.58 241.174L1825.82 228.073L1838.68 137.014L1886.15 99.0157L1937.63 106.287L1944.6 56.9279L1992.07 18.9295L2085.68 32.1502Z" fill="black" fill-opacity="0.2"/>
<path d="M2001.2 31.0696L1988.04 124.256L1895.28 111.156L1885.07 183.493L1977.83 196.593L1964.79 288.929L2037.12 299.145L2050.16 206.809L2142.92 219.909L2153.14 147.573L2060.38 134.472L2073.54 41.2856L2001.2 31.0696ZM2085.68 32.1502L2072.52 125.337L2165.28 138.437L2152.06 232.05L2102.4 267.134L2053.47 260.224L2046.26 311.285L1996.6 346.37L1905.54 333.509L1918.58 241.174L1825.82 228.073L1838.68 137.014L1886.15 99.0157L1937.63 106.287L1944.6 56.9279L1992.07 18.9295L2085.68 32.1502Z" fill="url(#paint0_linear_7_2)"/>
<path d="M2001.2 31.0696L1988.04 124.256L1895.28 111.156L1885.07 183.493L1977.83 196.593L1964.79 288.929L2037.12 299.145L2050.16 206.809L2142.92 219.909L2153.14 147.573L2060.38 134.472L2073.54 41.2856L2001.2 31.0696ZM2085.68 32.1502L2072.52 125.337L2165.28 138.437L2152.06 232.05L2102.4 267.134L2053.47 260.224L2046.26 311.285L1996.6 346.37L1905.54 333.509L1918.58 241.174L1825.82 228.073L1838.68 137.014L1886.15 99.0157L1937.63 106.287L1944.6 56.9279L1992.07 18.9295L2085.68 32.1502Z" fill="url(#paint1_linear_7_2)"/>
<defs>
<linearGradient id="paint0_linear_7_2" x1="1974.15" y1="229.622" x2="2185.85" y2="182.53" gradientUnits="userSpaceOnUse">
<stop stop-color="#DC07FF"/>
<stop offset="0.662408" stop-color="#9A45FE"/>
<stop offset="1" stop-color="#590AA0"/>
</linearGradient>
<linearGradient id="paint1_linear_7_2" x1="1974.15" y1="229.622" x2="2185.85" y2="182.53" gradientUnits="userSpaceOnUse">
<stop stop-color="#DC07FF"/>
<stop offset="0.662408" stop-color="#9A45FE"/>
<stop offset="1" stop-color="#590AA0"/>
</linearGradient>
</defs>
</svg>
